<svg height="900" width="1440" xmlns="http://www.w3.org/2000/svg"><g stroke-width="1.51"><path d="m679 441-56 52 82 28z" fill="#3b46b9" stroke="#3b46b9"/><path d="m623 493 38 94 44-66z" fill="#3940b8" stroke="#3940b8"/><path d="m623 493-10 92 48 2z" fill="#3940b8" stroke="#3940b8"/><path d="m705 521 84-9-110-71z" fill="#3a40b7" stroke="#3a40b7"/><path d="m763 599 26-87-84 9z" fill="#3637b6" stroke="#3637b6"/><path d="m679 441-116-11 60 63z" fill="#3c4dba" stroke="#3c4dba"/><path d="m623 493-108 13 98 79z" fill="#3b47b9" stroke="#3b47b9"/><path d="m661 587 102 12-58-78z" fill="#3637b6" stroke="#3637b6"/><path d="m675 646 88-47-102-12z" fill="#423ab7" stroke="#423ab7"/><path d="m789 512 1-114-111 43z" fill="#3a43b8" stroke="#3a43b8"/><path d="m679 441 1-104-117 93z" fill="#3e52ba" stroke="#3e52ba"/><path d="m790 398-110-61-1 104z" fill="#3d4dba" stroke="#3d4dba"/><path d="m563 430-48 76 108-13z" fill="#3d4fba" stroke="#3d4fba"/><path d="m613 585 62 61-14-59z" fill="#423eb7" stroke="#423eb7"/><path d="m565 665 110-19-62-61z" fill="#4a42b8" stroke="#4a42b8"/><path d="m789 512 33-103-32-11z" fill="#3940b8" stroke="#3940b8"/><path d="m790 398-28-95-82 34z" fill="#3e50ba" stroke="#3e50ba"/><path d="m864 524-42-115-33 103z" fill="#3738b6" stroke="#3738b6"/><path d="m675 646 92-6-4-41z" fill="#4637b6" stroke="#4637b6"/><path d="m763 599 71-24-45-63z" fill="#3430b5" stroke="#3430b5"/><path d="m767 640 67-65-71 24z" fill="#3e31b5" stroke="#3e31b5"/><path d="m563 430-64-14 16 90z" fill="#3e52bb" stroke="#3e52bb"/><path d="m500 330-1 86 64 14zm180 7-77-33-40 126z" fill="#3f59bc" stroke="#3f59bc"/><path d="m834 575 30-51-75-12z" fill="#3431b5" stroke="#3431b5"/><path d="m486 602 79 63 48-80z" fill="#4747b9" stroke="#4747b9"/><path d="m750 747 73-82-56-25z" fill="#5135b5" stroke="#5135b5"/><path d="m861 307-99-4 28 95z" fill="#3d4cba" stroke="#3d4cba"/><path d="m680 337v-69l-77 36z" fill="#3f57bc" stroke="#3f57bc"/><path d="m515 506-29 96 127-17z" fill="#3b46b8" stroke="#3b46b8"/><path d="m433 594 53 8 29-96z" fill="#3a40b8" stroke="#3a40b8"/><path d="m762 303-82-35v69z" fill="#3e53bb" stroke="#3e53bb"/><path d="m486 602 34 61 45 2z" fill="#4d47b9" stroke="#4d47b9"/><path d="m603 304-103 26 63 100z" fill="#405fbd" stroke="#405fbd"/><path d="m499 416-53-6 69 96z" fill="#3e50bb" stroke="#3e50bb"/><path d="m583 249-83 81 103-26z" fill="#405ebd" stroke="#405ebd"/><path d="m767 640 56 25 11-90z" fill="#4330b5" stroke="#4330b5"/><path d="m943 574-1-98-78 48z" fill="#372cb4" stroke="#372cb4"/><path d="m750 747 17-107-92 6z" fill="#513ab6" stroke="#513ab6"/><path d="m500 330-54 80 53 6z" fill="#3f57bc" stroke="#3f57bc"/><path d="m680 268-97-19 20 55z" fill="#3f56bc" stroke="#3f56bc"/><path d="m486 602-53-8 87 69z" fill="#4742b9" stroke="#4742b9"/><path d="m392 485 41 109 82-88z" fill="#3a43b9" stroke="#3a43b9"/><path d="m822 409 39-102-71 91z" fill="#3b46b8" stroke="#3b46b8"/><path d="m762 303 9-103-91 68z" fill="#3d4bbb" stroke="#3d4bbb"/><path d="m928 395-67-88-39 102z" fill="#3a42b8" stroke="#3a42b8"/><path d="m708 769 42-22-75-101z" fill="#5b3db7" stroke="#5b3db7"/><path d="m568 752 107-106-110 19z" fill="#5746b8" stroke="#5746b8"/><path d="m864 524 78-48-120-67z" fill="#3535b6" stroke="#3535b6"/><path d="m943 574-79-50-30 51z" fill="#3129b3" stroke="#3129b3"/><path d="m942 476-14-81-106 14z" fill="#3839b6" stroke="#3839b6"/><path d="m446 410-54 75 123 21z" fill="#3d4bba" stroke="#3d4bba"/><path d="m355 461 37 24-36-75z" fill="#3d46ba" stroke="#3d46ba"/><path d="m500 330-74 22 20 58z" fill="#3f58bd" stroke="#3f58bd"/><path d="m384 232 42 120 74-22z" fill="#4058bd" stroke="#4058bd"/><path d="m510 722 58 30-3-87z" fill="#5d4cb9" stroke="#5d4cb9"/><path d="m510 722 55-57-45-2z" fill="#564ab9" stroke="#564ab9"/><path d="m568 752 140 17-33-123z" fill="#5d43b8" stroke="#5d43b8"/><path d="m383 637 127 85 10-59z" fill="#5444b9" stroke="#5444b9"/><path d="m913 650 30-76-109 1z" fill="#3926b4" stroke="#3926b4"/><path d="m913 650-79-75-11 90z" fill="#422bb4" stroke="#422bb4"/><path d="m921 769-8-119-90 15z" fill="#512ab4" stroke="#512ab4"/><path d="m825 217-54-17-9 103z" fill="#3b45b9" stroke="#3b45b9"/><path d="m680 268 11-152-108 133z" fill="#3e4dbb" stroke="#3e4dbb"/><path d="m583 249-66-26-17 107z" fill="#405bbd" stroke="#405bbd"/><path d="m562 118-45 105 66 26z" fill="#3f54bd" stroke="#3f54bd"/><path d="m928 209-103 8 36 90z" fill="#393eb8" stroke="#393eb8"/><path d="m861 307-36-90-63 86z" fill="#3c46b9" stroke="#3c46b9"/><path d="m392 485-26 76 67 33z" fill="#393db8" stroke="#393db8"/><path d="m433 594-50 43 137 26z" fill="#4940b9" stroke="#4940b9"/><path d="m355 461 11 100 26-76z" fill="#3b40b9" stroke="#3b40b9"/><path d="m356 410 36 75 54-75z" fill="#3d4aba" stroke="#3d4aba"/><path d="m366 561 17 76 50-43z" fill="#3f3bb8" stroke="#3f3bb8"/><path d="m343 300 13 110 70-58z" fill="#3f53bc" stroke="#3f53bc"/><path d="m426 352-70 58h90z" fill="#3f51bc" stroke="#3f51bc"/><path d="m708 769 64 37-22-59z" fill="#653cb6" stroke="#653cb6"/><path d="m750 747 90 28-17-110z" fill="#5b34b6" stroke="#5b34b6"/><path d="m616 817 73 2 19-50z" fill="#6b45b8" stroke="#6b45b8"/><path d="m616 817 92-48-140-17z" fill="#6847b8" stroke="#6847b8"/><path d="m772 806 68-31-90-28z" fill="#6438b6" stroke="#6438b6"/><path d="m494 849 122-32-48-65z" fill="#6f4fba" stroke="#6f4fba"/><path d="m494 849 74-97-58-30z" fill="#694db9" stroke="#694db9"/><path d="m689 819 83-13-64-37z" fill="#6a40b7" stroke="#6a40b7"/><path d="m928 395 35-68-102-20z" fill="#3f45b8" stroke="#3f45b8"/><path d="m1003 411-40-84-35 68z" fill="#4742b8" stroke="#4742b8"/><path d="m1003 411-75-16 14 81z" fill="#443bb7" stroke="#443bb7"/><path d="m943 574 64-60-65-38z" fill="#412eb4" stroke="#412eb4"/><path d="m1052 611-45-97-64 60z" fill="#4528b4" stroke="#4528b4"/><path d="m1004 648-61-74-30 76z" fill="#4a28b4" stroke="#4a28b4"/><path d="m1007 514-4-103-61 65z" fill="#4736b6" stroke="#4736b6"/><path d="m992 754 12-106-91 2z" fill="#5a2bb5" stroke="#5a2bb5"/><path d="m749 123-58-7 80 84z" fill="#3a3fba" stroke="#3a3fba"/><path d="m771 200-80-84-11 152z" fill="#3c46ba" stroke="#3c46ba"/><path d="m880 121-131 2 22 77z" fill="#3939b9" stroke="#3939b9"/><path d="m880 121-109 79 54 17z" fill="#383bb9" stroke="#383bb9"/><path d="m840 775 81-6-98-104z" fill="#5a2eb5" stroke="#5a2eb5"/><path d="m842 835 79-66-81 6z" fill="#652fb6" stroke="#652fb6"/><path d="m384 232-41 68 83 52z" fill="#3f53bd" stroke="#3f53bd"/><path d="m356 410-86 17 85 34z" fill="#3c46bb" stroke="#3c46bb"/><path d="m384 232 116 98 17-107z" fill="#4055bd" stroke="#4055bd"/><path d="m963 327-35-118-67 98z" fill="#3f41b8" stroke="#3f41b8"/><path d="m1016 220-88-11 35 118z" fill="#483fb8" stroke="#483fb8"/><path d="m443 162-59 70 133-9z" fill="#3f4ebd" stroke="#3f4ebd"/><path d="m383 637 31 138 96-53z" fill="#5b43b8" stroke="#5b43b8"/><path d="m691 116-129 2 21 131z" fill="#3e4bbc" stroke="#3e4bbc"/><path d="m772 806 70 29-2-60z" fill="#6936b6" stroke="#6936b6"/><path d="m771 917 71-82-70-29z" fill="#6a38b7" stroke="#6a38b7"/><path d="m711 898 61-92-83 13z" fill="#6c40b7" stroke="#6c40b7"/><path d="m1003 411 13-107-53 23z" fill="#4d47b8" stroke="#4d47b8"/><path d="m1088 325-72-21-13 107z" fill="#5348b9" stroke="#5348b9"/><path d="m1088 325-85 86 123 9z" fill="#5844b8" stroke="#5844b8"/><path d="m383 637-74 96 105 42z" fill="#5b3db8" stroke="#5b3db8"/><path d="m366 561-54 89 71-13z" fill="#4438b8" stroke="#4438b8"/><path d="m231 639 81 11-100-48z" fill="#452fb7" stroke="#452fb7"/><path d="m234 461 132 100-11-100z" fill="#3a3db9" stroke="#3a3db9"/><path d="m562 118-64 12 19 93z" fill="#3f4ebd" stroke="#3f4ebd"/><path d="m498 130-55 32 74 61z" fill="#3f4dbd" stroke="#3f4dbd"/><path d="m691 116-113-57-16 59z" fill="#3d45bb" stroke="#3d45bb"/><path d="m749 123-9-27-49 20z" fill="#393bba" stroke="#393bba"/><path d="m832 61-92 35 9 27z" fill="#3835b9" stroke="#3835b9"/><path d="m1004 648 48-37-109-37z" fill="#4e29b4" stroke="#4e29b4"/><path d="m1105 673-53-62-48 37z" fill="#5d2bb5" stroke="#5d2bb5"/><path d="m414 775 80 74 16-127z" fill="#6a49ba" stroke="#6a49ba"/><path d="m616 817 95 81-22-79z" fill="#6d45b8" stroke="#6d45b8"/><path d="m343 300-73 127 86-17z" fill="#3e4cbc" stroke="#3e4cbc"/><path d="m568 894 143 4-95-81z" fill="#6d49b9" stroke="#6d49b9"/><path d="m921 769 71-15-79-104z" fill="#5e2bb5" stroke="#5e2bb5"/><path d="m995 806-3-52-71 15z" fill="#6b2fb5" stroke="#6b2fb5"/><path d="m494 849 74 45 48-77z" fill="#6f50ba" stroke="#6f50ba"/><path d="m1052 611 23-10-68-87z" fill="#4e28b4" stroke="#4e28b4"/><path d="m1105 673-30-72-23 10z" fill="#5e2bb5" stroke="#5e2bb5"/><path d="m928 209-48-88-55 96z" fill="#3736b8" stroke="#3736b8"/><path d="m949 160-69-39 48 88z" fill="#3c33b8" stroke="#3c33b8"/><path d="m494 849 9 97 65-52z" fill="#6d4eba" stroke="#6d4eba"/><path d="m414 775 24 73 56 1z" fill="#6e49ba" stroke="#6e49ba"/><path d="m295 839 143 9-24-73z" fill="#6e43b9" stroke="#6e43b9"/><path d="m1016 220-67-60-21 49z" fill="#4538b8" stroke="#4538b8"/><path d="m312 650-3 83 74-96z" fill="#5138b8" stroke="#5138b8"/><path d="m258 721 51 12 3-83z" fill="#5736b8" stroke="#5736b8"/><path d="m1110 238-94-18v84z" fill="#5542b9" stroke="#5542b9"/><path d="m1016 304v-84l-53 107z" fill="#4d44b9" stroke="#4d44b9"/><path d="m270 427-36 34h121z" fill="#3b40ba" stroke="#3b40ba"/><path d="m157 419 77 42 36-34z" fill="#3a3dba" stroke="#3a3dba"/><path d="m254 289 16 138 73-127z" fill="#3f4ebd" stroke="#3f4ebd"/><path d="m562 118-75-60 11 72z" fill="#3d48bc" stroke="#3d48bc"/><path d="m427 91-62 57 78 14z" fill="#3d43bc" stroke="#3d43bc"/><path d="m709 45-131 14 113 57z" fill="#3a3eba" stroke="#3a3eba"/><path d="m709 45-18 71 49-20z" fill="#393aba" stroke="#393aba"/><path d="m842 835 84 24-5-90z" fill="#692eb5" stroke="#692eb5"/><path d="m711 898 60 19 1-111z" fill="#6a3db7" stroke="#6a3db7"/><path d="m797 992-26-75-59 124z" fill="#663cb7" stroke="#663cb7"/><path d="m384 232-63-14 22 82z" fill="#3e4cbc" stroke="#3e4cbc"/><path d="m365 148-44 70 63 14z" fill="#3d47bc" stroke="#3d47bc"/><path d="m365 148 19 84 59-70z" fill="#3d48bc" stroke="#3d48bc"/><path d="m832 61-123-16 31 51z" fill="#3634b8" stroke="#3634b8"/><path d="m1126 420-123-9 131 64z" fill="#593eb7" stroke="#593eb7"/><path d="m881 892 45-33-84-24z" fill="#672fb5" stroke="#672fb5"/><path d="m1083 718 22-45-101-25z" fill="#662db5" stroke="#662db5"/><path d="m926 859 69-53-74-37z" fill="#6f2fb6" stroke="#6f2fb6"/><path d="m771 917 110-25-39-57z" fill="#6834b6" stroke="#6834b6"/><path d="m880 121-48-60-83 62z" fill="#3632b8" stroke="#3632b8"/><path d="m955 47-123 14 48 60z" fill="#3228b6" stroke="#3228b6"/><path d="m427 91 16 71 55-32z" fill="#3d46bc" stroke="#3d46bc"/><path d="m1134 475-131-64 4 103z" fill="#5238b6" stroke="#5238b6"/><path d="m321 218-67 71 89 11z" fill="#3e4abd" stroke="#3e4abd"/><path d="m230 206 24 83 67-71z" fill="#3d44bc" stroke="#3d44bc"/><path d="m1075 601 59-126-127 39z" fill="#5330b5" stroke="#5330b5"/><path d="m1191 497-57-22 66 75z" fill="#6236b6" stroke="#6236b6"/><path d="m212 602 100 48 54-89z" fill="#3f32b8" stroke="#3f32b8"/><path d="m487 58-60 33 71 39z" fill="#3d44bc" stroke="#3d44bc"/><path d="m513-20-26 78 91 1z" fill="#3a43b8" stroke="#3a43b8"/><path d="m578 59-91-1 75 60z" fill="#3d48bc" stroke="#3d48bc"/><path d="m1083 718-79-70-12 106z" fill="#662db5" stroke="#662db5"/><path d="m1077 807 6-89-91 36z" fill="#7330b6" stroke="#7330b6"/><path d="m234 461-22 141 154-41z" fill="#3733b7" stroke="#3733b7"/><path d="m169 495 43 107 22-141z" fill="#3631b8" stroke="#3631b8"/><path d="m231 639 27 82 54-71z" fill="#4f33b8" stroke="#4f33b8"/><path d="m309 733-14 106 119-64z" fill="#683db9" stroke="#683db9"/><path d="m169 663 89 58-27-82z" fill="#4f2eb8" stroke="#4f2eb8"/><path d="m568 894 31 89 112-85z" fill="#6b49b9" stroke="#6b49b9"/><path d="m438 848 65 98-9-97z" fill="#6d4bba" stroke="#6d4bba"/><path d="m387 959 116-13-65-98z" fill="#6b48ba" stroke="#6b48ba"/><path d="m503 946 96 37-31-89z" fill="#6c4fba" stroke="#6c4fba"/><path d="m771 917 26 75 84-100z" fill="#6736b6" stroke="#6736b6"/><path d="m280 851 15-12-37-118z" fill="#6b38ba" stroke="#6b38ba"/><path d="m157 419 12 76 65-34z" fill="#3837b9" stroke="#3837b9"/><path d="m949 160 6-113-75 74z" fill="#3b2db7" stroke="#3b2db7"/><path d="m1016 220 34-70-101 10z" fill="#4c37b8" stroke="#4c37b8"/><path d="m1088 325 22-87-94 66z" fill="#5947b9" stroke="#5947b9"/><path d="m1172 304-62-66-22 87z" fill="#6049b9" stroke="#6049b9"/><path d="m1172 304-84 21 38 95z" fill="#614ab9" stroke="#614ab9"/><path d="m1080 172-30-22-34 70z" fill="#5339b8" stroke="#5339b8"/><path d="m709 45-57-68-74 82z" fill="#383cb6" stroke="#383cb6"/><path d="m794-59-142 36 57 68z" fill="#3332b2" stroke="#3332b2"/><path d="m794-59-85 104 123 16z" fill="#332fb3" stroke="#332fb3"/><path d="m254 289-78 61 94 77z" fill="#3d48bc" stroke="#3d48bc"/><path d="m178 203-2 147 78-61z" fill="#3d43bc" stroke="#3d43bc"/><path d="m258 721 37 118 14-106z" fill="#6338b9" stroke="#6338b9"/><path d="m169 663 62-24-19-37z" fill="#452bb7" stroke="#452bb7"/><path d="m995 806 82 1-85-53z" fill="#7430b6" stroke="#7430b6"/><path d="m1211 770-31-115-75 18z" fill="#7630b6" stroke="#7630b6"/><path d="m1004 927 73-120-82-1z" fill="#7831b6" stroke="#7831b6"/><path d="m1004 927-9-121-69 53z" fill="#7130b6" stroke="#7130b6"/><path d="m1110 238-30-66-64 48z" fill="#573db8" stroke="#573db8"/><path d="m176 350-19 69 113 8z" fill="#3b40bb" stroke="#3b40bb"/><path d="m881 892 68 38-23-71z" fill="#692eb5" stroke="#692eb5"/><path d="m712 1041 59-124-60-19z" fill="#683fb8" stroke="#683fb8"/><path d="m1134 475 76-42-84-13z" fill="#623fb7" stroke="#623fb7"/><path d="m1200 550-66-75-59 126z" fill="#5c30b5" stroke="#5c30b5"/><path d="m1200 550-125 51 105 54z" fill="#632db5" stroke="#632db5"/><path d="m823 1019 126-89-68-38z" fill="#642fb5" stroke="#642fb5"/><path d="m223 120 7 86 91 12z" fill="#3b3dbc" stroke="#3b3dbc"/><path d="m223 120 98 98 44-70z" fill="#3b3ebc" stroke="#3b3ebc"/><path d="m169 495-16 72 59 35z" fill="#332ab6" stroke="#332ab6"/><path d="m87 490 66 77 16-72z" fill="#332db5" stroke="#332db5"/><path d="m1022 94-73 66 101-10z" fill="#4b32b7" stroke="#4b32b7"/><path d="m1022 94-67-47-6 113z" fill="#442cb7" stroke="#442cb7"/><path d="m1089 76-67 18 28 56z" fill="#522fb8" stroke="#522fb8"/><path d="m153 567 16 96 43-61z" fill="#3e29b6" stroke="#3e29b6"/><path d="m563-49-50 29 65 79z" fill="#3842b5" stroke="#3842b5"/><path d="m487 58-59-61-1 94z" fill="#3a3eb9" stroke="#3a3eb9"/><path d="m427 91-105-56 43 113z" fill="#3b3bbc" stroke="#3b3bbc"/><path d="m1180 655-105-54 30 72z" fill="#662db5" stroke="#662db5"/><path d="m295 839 65 88 78-79z" fill="#6c41b9" stroke="#6c41b9"/><path d="m163 765 117 86-22-130z" fill="#6533b9" stroke="#6533b9"/><path d="m955 47-88-55-35 69z" fill="#2f26b3" stroke="#2f26b3"/><path d="m712 1041 111-22-26-27z" fill="#653ab7" stroke="#653ab7"/><path d="m503 946 13 53 83-16z" fill="#6b50ba" stroke="#6b50ba"/><path d="m405 987 111 12-13-53z" fill="#6a4bba" stroke="#6a4bba"/><path d="m1210 433-76 42 57 22z" fill="#643cb6" stroke="#643cb6"/><path d="m1210 433-38-129-46 116z" fill="#6647b8" stroke="#6647b8"/><path d="m1110 238 65-5-95-61z" fill="#5e3fb9" stroke="#5e3fb9"/><path d="m1211 770-106-97-22 45z" fill="#7630b6" stroke="#7630b6"/><path d="m280 851 80 76-65-88z" fill="#6b3cba" stroke="#6b3cba"/><path d="m1268 476-58-43-19 64z" fill="#6a3db7" stroke="#6a3db7"/><path d="m513-20-85 17 59 61z" fill="#383eb6" stroke="#383eb6"/><path d="m513-20-86-69 1 86z" fill="#3439b3" stroke="#3439b3"/><path d="m652-23-89-26 15 108z" fill="#373eb5" stroke="#373eb5"/><path d="m579-90-16 41 89 26z" fill="#343ab1" stroke="#343ab1"/><path d="m405 987-18-28-78 60z" fill="#6841b9" stroke="#6841b9"/><path d="m360 927 27 32 51-111z" fill="#6b44b9" stroke="#6b44b9"/><path d="m1290 669-28-112-82 98z" fill="#7230b6" stroke="#7230b6"/><path d="m949 930 55-3-78-68z" fill="#6e2fb6" stroke="#6e2fb6"/><path d="m997 1005 7-78-55 3z" fill="#6f30b6" stroke="#6f30b6"/><path d="m797 992 26 27 58-127z" fill="#6534b6" stroke="#6534b6"/><path d="m712 1041-1-143-112 85z" fill="#6845b8" stroke="#6845b8"/><path d="m516 999 196 42-113-58z" fill="#694bb9" stroke="#694bb9"/><path d="m867-8-73-51 38 120z" fill="#2f28b1" stroke="#2f28b1"/><path d="m797-120-3 61 83-43z" fill="#2922aa" stroke="#2922aa"/><path d="m955 47-42-69-46 14z" fill="#3123b0" stroke="#3123b0"/><path d="m998 4-85-26 42 69z" fill="#3b24b2" stroke="#3b24b2"/><path d="m309 1019 78-60-27-32z" fill="#6940b9" stroke="#6940b9"/><path d="m387 959 18 28 98-41z" fill="#6a47b9" stroke="#6a47b9"/><path d="m516 999-260 40 456 2z" fill="#694cba" stroke="#694cba"/><path d="m1172 304 3-71-65 5z" fill="#6446b9" stroke="#6446b9"/><path d="m1089 76-91-72 24 90z" fill="#4d2ab6" stroke="#4d2ab6"/><path d="m1022 94-24-90-43 43z" fill="#4528b5" stroke="#4528b5"/><path d="m1288 233h-113l-3 71z" fill="#6b47ba" stroke="#6b47ba"/><path d="m230 206-52-3 76 86z" fill="#3c3fbc" stroke="#3c3fbc"/><path d="m85 386 2 104 70-71z" fill="#3637b5" stroke="#3637b5"/><path d="m223 120-45 83 52 3z" fill="#3a38bc" stroke="#3a38bc"/><path d="m428-3-106 38 105 56z" fill="#3839b8" stroke="#3839b8"/><path d="m169 663-6 102 95-44z" fill="#582db8" stroke="#582db8"/><path d="m280 851-50 78 130-2z" fill="#6a3aba" stroke="#6a3aba"/><path d="m92 670 71 95 6-102z" fill="#5229b5" stroke="#5229b5"/><path d="m322 35-99 85 142 28z" fill="#3937bc" stroke="#3937bc"/><path d="m153 567-75 19 91 77z" fill="#3a26b4" stroke="#3a26b4"/><path d="m157 419-70 71 82 5z" fill="#3534b6" stroke="#3534b6"/><path d="m85 386 72 33 19-69z" fill="#393fb8" stroke="#393fb8"/><path d="m877-102-83 43 73 51z" fill="#2a23ac" stroke="#2a23ac"/><path d="m1089 76-39 74 30 22z" fill="#5533b8" stroke="#5533b8"/><path d="m563-49-41-54-9 83z" fill="#353db1" stroke="#353db1"/><path d="m428-3-106-46v84z" fill="#3433b5" stroke="#3433b5"/><path d="m711-139-132 49 73 67z" fill="#3134ae" stroke="#3134ae"/><path d="m1176 136-87-60-9 96z" fill="#5b33b9" stroke="#5b33b9"/><path d="m1262 557-71-60 9 53z" fill="#6733b6" stroke="#6733b6"/><path d="m1268 476-19-104-39 61z" fill="#6d44b8" stroke="#6d44b8"/><path d="m1210 433 39-61-77-68z" fill="#6c4bb9" stroke="#6c4bb9"/><path d="m41 296 44 90 91-36z" fill="#3942b6" stroke="#3942b6"/><path d="m1180 655 82-98-62-7z" fill="#692db5" stroke="#692db5"/><path d="m1211 770-128-52-6 89z" fill="#7d32b6" stroke="#7d32b6"/><path d="m1262 557 6-81-77 21z" fill="#6b37b7" stroke="#6b37b7"/><path d="m823 1019 119 3 7-92z" fill="#652eb5" stroke="#652eb5"/><path d="m1206 849 5-79-134 37z" fill="#8835b7" stroke="#8835b7"/><path d="m712 1041 230-19-119-3z" fill="#6335b6" stroke="#6335b6"/><path d="m87 490-9 96 75-19z" fill="#2f27b3" stroke="#2f27b3"/><path d="m19 613 59-27-123-104z" fill="#2920ad" stroke="#2920ad"/><path d="m78 586 14 84 77-7z" fill="#4326b3" stroke="#4326b3"/><path d="m100 864 64-40-113-41z" fill="#672bb4" stroke="#672bb4"/><path d="m163 765 1 59 116 27z" fill="#6b31b9" stroke="#6b31b9"/><path d="m579-90-57-13 41 54z" fill="#333caf" stroke="#333caf"/><path d="m711-139-189 36 57 13z" fill="#3036ac" stroke="#3036ac"/><path d="m1135 919-58-112-73 120z" fill="#7c33b6" stroke="#7c33b6"/><path d="m942 1022 55-17-48-75z" fill="#6c30b6" stroke="#6c30b6"/><path d="m1089 76-9-103-82 31z" fill="#4d27b3" stroke="#4d27b3"/><path d="m1175 233 1-97-96 36z" fill="#613bb9" stroke="#613bb9"/><path d="m1288 233-112-97-1 97z" fill="#6a40b9" stroke="#6a40b9"/><path d="m322 35-77 7-22 78z" fill="#3630ba" stroke="#3630ba"/><path d="m223 120-97 7 52 76z" fill="#3733ba" stroke="#3733ba"/><path d="m52 241-11 55 135 54z" fill="#383fb6" stroke="#383fb6"/><path d="m262-8-17 50 77-7z" fill="#342eb6" stroke="#342eb6"/><path d="m794-59-83-80-59 116z" fill="#2f2ead" stroke="#2f2ead"/><path d="m877-102-10 94 46-14z" fill="#291fad" stroke="#291fad"/><path d="m164 824 66 105 50-78z" fill="#6a34b9" stroke="#6a34b9"/><path d="m968-133-91 31 36 80z" fill="#2c1ba9" stroke="#2c1ba9"/><path d="m968-133-55 111 85 26z" fill="#381fad" stroke="#381fad"/><path d="m522-103-95 14 86 69z" fill="#3339b0" stroke="#3339b0"/><path d="m797-120-86-19 83 80z" fill="#2a27aa" stroke="#2a27aa"/><path d="m303-139 19 90 105-40z" fill="#2e2cad" stroke="#2e2cad"/><path d="m1143 994-8-75-131 8z" fill="#7d33b6" stroke="#7d33b6"/><path d="m427-89-105 40 106 46z" fill="#3233b1" stroke="#3233b1"/><path d="m230 929 79 90 51-92z" fill="#683bba" stroke="#683bba"/><path d="m405 987-96 32 207-20z" fill="#6945b9" stroke="#6945b9"/><path d="m322-49-60 41 60 43z" fill="#322eb4" stroke="#322eb4"/><path d="m245 42-54 3 32 75z" fill="#352cb9" stroke="#352cb9"/><path d="m1294 720-4-51-110-14z" fill="#7b32b6" stroke="#7b32b6"/><path d="m1353 512-20-71-65 35z" fill="#6a3db7" stroke="#6a3db7"/><path d="m1294 720-114-65 31 115z" fill="#8033b6" stroke="#8033b6"/><path d="m1166 910 40-61-129-42z" fill="#8635b7" stroke="#8635b7"/><path d="m1249 372 54-26-131-42z" fill="#704fba" stroke="#704fba"/><path d="m1333 441-30-95-54 26z" fill="#6d49b9" stroke="#6d49b9"/><path d="m1333 441-84-69 19 104z" fill="#6c43b8" stroke="#6c43b8"/><path d="m1135 919 31-9-89-103z" fill="#8334b7" stroke="#8334b7"/><path d="m1143 994 23-84-31 9z" fill="#8435b7" stroke="#8435b7"/><path d="m262-8-71 53 54-3z" fill="#332bb6" stroke="#332bb6"/><path d="m191 45-65 82 97-7z" fill="#362dba" stroke="#362dba"/><path d="m1195 9-115-36 9 103z" fill="#5728b4" stroke="#5728b4"/><path d="m1189 71-100 5 87 60z" fill="#6030b9" stroke="#6030b9"/><path d="m-45 482 123 104 9-96z" fill="#2e28b0" stroke="#2e28b0"/><path d="m52 241 124 109 2-147z" fill="#393eb9" stroke="#393eb9"/><path d="m78 586-59 27 73 57z" fill="#3c22b0" stroke="#3c22b0"/><path d="m51 783 113 41-1-59z" fill="#642cb5" stroke="#642cb5"/><path d="m164 824 17 130 49-25z" fill="#6831b9" stroke="#6831b9"/><path d="m-9 384 96 106-2-104z" fill="#3436b2" stroke="#3436b2"/><path d="m1353 512-85-36-6 81z" fill="#6937b6" stroke="#6937b6"/><path d="m1290 669 54-87-82-25z" fill="#6d2fb6" stroke="#6d2fb6"/><path d="m1261 873 33-153-83 50z" fill="#8d37b7" stroke="#8d37b7"/><path d="m1343 686-49 34 97 62z" fill="#8234b7" stroke="#8234b7"/><path d="m1280 59-91 12-13 65z" fill="#6830b9" stroke="#6830b9"/><path d="m51 162 1 79 126-38z" fill="#3535b6" stroke="#3535b6"/><path d="m1303 346-15-113-116 71z" fill="#6f4dba" stroke="#6f4dba"/><path d="m1356 336-68-103 15 113z" fill="#6e4eba" stroke="#6e4eba"/><path d="m230 929 26 110 53-20z" fill="#6638b9" stroke="#6638b9"/><path d="m100 864 81 90-17-130z" fill="#672eb6" stroke="#672eb6"/><path d="m1343 686 1-104-54 87z" fill="#7431b6" stroke="#7431b6"/><path d="m1333 441 23-105-53 10z" fill="#6d4bb9" stroke="#6d4bb9"/><path d="m1344 582 9-70-91 45z" fill="#6731b6" stroke="#6731b6"/><path d="m51 783 112-18-71-95z" fill="#5928b3" stroke="#5928b3"/><path d="m-21 745 72 38 41-113z" fill="#5525b0" stroke="#5525b0"/><path d="m41 296-50 88 94 2z" fill="#363db3" stroke="#363db3"/><path d="m-5 289-4 95 50-88z" fill="#353fb2" stroke="#353fb2"/><path d="m877-102 91-31-171 13z" fill="#231aa7" stroke="#231aa7"/><path d="m797-120 171-13-257-6z" fill="#251fa7" stroke="#251fa7"/><path d="m1026-133h-58l30 137z" fill="#3c1daa" stroke="#3c1daa"/><path d="m1026-133-28 137 82-31z" fill="#4620ae" stroke="#4620ae"/><path d="m181 954 75 85-26-110z" fill="#6634b9" stroke="#6634b9"/><path d="m309 1019-53 20 260-40z" fill="#6740b9" stroke="#6740b9"/><path d="m175 1039h81l-75-85z" fill="#6531b9" stroke="#6531b9"/><path d="m1261 915v-42l-55-24z" fill="#9038b7" stroke="#9038b7"/><path d="m997 1005 146-11-139-67z" fill="#7732b6" stroke="#7732b6"/><path d="m1205 1029-62-35-146 11z" fill="#7e34b7" stroke="#7e34b7"/><path d="m52 241-48 26 37 29z" fill="#3539b3" stroke="#3539b3"/><path d="m126 127-75 35 127 41z" fill="#3632b7" stroke="#3632b7"/><path d="m66 67-15 95 75-35z" fill="#322ab4" stroke="#322ab4"/><path d="m1344 582 76-27-67-43z" fill="#6631b6" stroke="#6631b6"/><path d="m1294 720 49-34-53-17z" fill="#7c33b6" stroke="#7c33b6"/><path d="m1261 873-50-103-5 79z" fill="#8f37b7" stroke="#8f37b7"/><path d="m1288 233 21-56-133-41z" fill="#6d3fba" stroke="#6d3fba"/><path d="m1437 313-81 23 104 83z" fill="#6b4db9" stroke="#6b4db9"/><path d="m-23 149 27 118 48-26z" fill="#3233b1" stroke="#3233b1"/><path d="m4 267-9 22 46 7z" fill="#353bb2" stroke="#353bb2"/><path d="m1261 915-55-66-40 61z" fill="#8c37b7" stroke="#8c37b7"/><path d="m1371 232-62-55-21 56z" fill="#6c43b9" stroke="#6c43b9"/><path d="m1189 71 6-62-106 67z" fill="#5f2cb6" stroke="#5f2cb6"/><path d="m1280 59-85-50-6 62z" fill="#662eb6" stroke="#662eb6"/><path d="m-91 519 46-37-40-105z" fill="#2c2aaa" stroke="#2c2aaa"/><path d="m-9 384-36 98 132 8z" fill="#312faf" stroke="#312faf"/><path d="m19 613-63 56 136 1z" fill="#4121ae" stroke="#4121ae"/><path d="m968-133 222-6h-479z" fill="#3117a6" stroke="#3117a6"/><path d="m1142-126-116-7 54 106z" fill="#4b1daa" stroke="#4b1daa"/><path d="m100 864-2 57 83 33z" fill="#652db5" stroke="#652db5"/><path d="m-14 899 112 22 2-57z" fill="#6329b2" stroke="#6329b2"/><path d="m191 45-125 22 60 60z" fill="#3228b6" stroke="#3228b6"/><path d="m262-8-47-69-24 122z" fill="#2f26b3" stroke="#2f26b3"/><path d="m322-49-107-28 47 69z" fill="#2f28b1" stroke="#2f28b1"/><path d="m303-139-88 62 107 28z" fill="#2c26ae" stroke="#2c26ae"/><path d="m303-139 124 50 95-14z" fill="#2f30ad" stroke="#2f30ad"/><path d="m711-139h-408l219 36z" fill="#3037ac" stroke="#3037ac"/><path d="m1205 1029 56-114-95-5z" fill="#8b37b7" stroke="#8b37b7"/><path d="m1455 732-36-91-76 45z" fill="#7932b6" stroke="#7932b6"/><path d="m215-77-78 65 54 57z" fill="#2e23b2" stroke="#2e23b2"/><path d="m-123 291 38 86 80-88z" fill="#323aae" stroke="#323aae"/><path d="m51 162-74-13 75 92z" fill="#322fb2" stroke="#322fb2"/><path d="m137-12-71 79 125-22z" fill="#2f24b3" stroke="#2f24b3"/><path d="m-93 591 49 78 63-56z" fill="#381caa" stroke="#381caa"/><path d="m51 783-65 116 114-35z" fill="#6428b1" stroke="#6428b1"/><path d="m-44 669 23 76 113-75z" fill="#4b22ae" stroke="#4b22ae"/><path d="m256 1039h-81l537 2z" fill="#6743b9" stroke="#6743b9"/><path d="m98 921 77 118 6-85z" fill="#642fb7" stroke="#642fb7"/><path d="m48 1033 127 6-77-118z" fill="#612cb4" stroke="#612cb4"/><path d="m1195 9-53-135-62 99z" fill="#5623ae" stroke="#5623ae"/><path d="m1309 177-29-118-104 77z" fill="#6c37b9" stroke="#6c37b9"/><path d="m1371 170-91-111 29 118z" fill="#6b38b9" stroke="#6b38b9"/><path d="m1356 336 15-104-83 1z" fill="#6d49ba" stroke="#6d49ba"/><path d="m1437 313-66-81-15 104z" fill="#6c4dba" stroke="#6c4dba"/><path d="m1460 419-127 22 20 71z" fill="#693fb7" stroke="#693fb7"/><path d="m1419 641 1-86-76 27z" fill="#692eb5" stroke="#692eb5"/><path d="m1419 641-75-59-1 104z" fill="#7130b6" stroke="#7130b6"/><path d="m712 1041 493-12-263-7z" fill="#6930b6" stroke="#6930b6"/><path d="m942 1022 263 7-208-24z" fill="#7632b6" stroke="#7632b6"/><path d="m1143 994 62 35-39-119z" fill="#8536b7" stroke="#8536b7"/><path d="m-44 669-32 76h55z" fill="#4e1fab" stroke="#4e1fab"/><path d="m-45 482-46 37 110 94z" fill="#2821aa" stroke="#2821aa"/><path d="m-85 377 40 105 36-98z" fill="#2f32ad" stroke="#2f32ad"/><path d="m-85 377 76 7 4-95z" fill="#333baf" stroke="#333baf"/><path d="m-123 291 118-2 9-22z" fill="#3237af" stroke="#3237af"/><path d="m1391 782-130 91 138-32z" fill="#8f38b7" stroke="#8f38b7"/><path d="m1391 782-97-62-33 153z" fill="#8c37b7" stroke="#8c37b7"/><path d="m1371 232v-62l-62 7z" fill="#6b40b9" stroke="#6b40b9"/><path d="m1459 243-88-73v62z" fill="#6b43b9" stroke="#6b43b9"/><path d="m-91 519-2 72 112 22z" fill="#261aa9" stroke="#261aa9"/><path d="m66 67-89 82 74 13z" fill="#2f28b2" stroke="#2f28b2"/><path d="m-48 47 25 102 89-82z" fill="#2c21b0" stroke="#2c21b0"/><path d="m1190-139-48 13 53 135z" fill="#5921ab" stroke="#5921ab"/><path d="m1279-40-84 49 85 50z" fill="#672bb3" stroke="#672bb3"/><path d="m1399 841-138 32 123 46z" fill="#8e38b7" stroke="#8e38b7"/><path d="m137-12-52-28-19 107z" fill="#2b20af" stroke="#2b20af"/><path d="m215-77-26-53-52 118z" fill="#291ead" stroke="#291ead"/><path d="m303-139-114 9 26 53z" fill="#291fab" stroke="#291fab"/><path d="m1460 419-107 93 120-42z" fill="#683eb7" stroke="#683eb7"/><path d="m1460 419-104-83-23 105z" fill="#6b48b8" stroke="#6b48b8"/><path d="m189-130-104 90 52 28z" fill="#281dac" stroke="#281dac"/><path d="m-21 745-20 89 92-51z" fill="#5e24ae" stroke="#5e24ae"/><path d="m-104 666 28 79 32-76z" fill="#481ca9" stroke="#481ca9"/><path d="m-76 745 35 89 20-89z" fill="#5a21ab" stroke="#5a21ab"/><path d="m1473 470-120 42 67 43z" fill="#6737b7" stroke="#6737b7"/><path d="m-93 591-11 75 60 3z" fill="#3b1aa8" stroke="#3b1aa8"/><path d="m-91 519-13 147 11-75z" fill="#2a18a7" stroke="#2a18a7"/><path d="m-123 291 19 375 13-147z" fill="#2824a8" stroke="#2824a8"/><path d="m-41 834 27 65 65-116z" fill="#6225ae" stroke="#6225ae"/><path d="m1514 298-55-55-22 70z" fill="#6a4bba" stroke="#6a4bba"/><path d="m1511 595-38-125-53 85z" fill="#6433b6" stroke="#6433b6"/><path d="m1511 595-91-40-1 86z" fill="#682fb5" stroke="#682fb5"/><path d="m1205 1029 78-18-22-96z" fill="#8d38b7" stroke="#8d38b7"/><path d="m1391 38-111 21 91 111z" fill="#6932b9" stroke="#6932b9"/><path d="m1391 38-112-78 1 99z" fill="#652bb4" stroke="#652bb4"/><path d="m1391 782 64-50-112-46z" fill="#8134b7" stroke="#8134b7"/><path d="m1384 919-123-46v42z" fill="#8e38b7" stroke="#8e38b7"/><path d="m1264-113-74-26 5 148z" fill="#5e22ac" stroke="#5e22ac"/><path d="m1142-126 48-13-164 6z" fill="#4e1ba7" stroke="#4e1ba7"/><path d="m1026-133 164-6-222 6z" fill="#4519a7" stroke="#4519a7"/><path d="m-85 377-38-86 32 228z" fill="#2e31ab" stroke="#2e31ab"/><path d="m-133 235 10 56 127-24z" fill="#2f34ad" stroke="#2f34ad"/><path d="m-133 235 137 32-27-118z" fill="#2f30ae" stroke="#2f30ae"/><path d="m1477 846-22-114-64 50z" fill="#8937b7" stroke="#8937b7"/><path d="m1437 313 22-70-88-11z" fill="#6b49ba" stroke="#6b49ba"/><path d="m1517 415-80-102 23 106z" fill="#694ab9" stroke="#694ab9"/><path d="m-14 899 62 134 50-112z" fill="#6128b1" stroke="#6128b1"/><path d="m1283 1011 101-92-123-4z" fill="#8c38b7" stroke="#8c38b7"/><path d="m1399 841 78 5-86-64z" fill="#8d38b7" stroke="#8d38b7"/><path d="m-14 899-3 123 65 11z" fill="#5e26af" stroke="#5e26af"/><path d="m-41 834-51 11 78 54z" fill="#6022ac" stroke="#6022ac"/><path d="m-76 745-16 100 51-11z" fill="#5f21ab" stroke="#5f21ab"/><path d="m-104 666 12 179 16-100z" fill="#531da9" stroke="#531da9"/><path d="m-116 122-17 113 110-86z" fill="#2b27ac" stroke="#2b27ac"/><path d="m-123 291-10-56 29 431z" fill="#2d30aa" stroke="#2d30aa"/><path d="m-104 666-1 251 13-72z" fill="#5f1ea9" stroke="#5f1ea9"/><path d="m13-55 53 122 19-107z" fill="#281dab" stroke="#281dab"/><path d="m13-55-61 102 114 20z" fill="#271cab" stroke="#271cab"/><path d="m1279-40-15-73-69 122z" fill="#6326af" stroke="#6326af"/><path d="m1334-95-70-18 15 73z" fill="#6023ac" stroke="#6023ac"/><path d="m1473 470 44-55-57 4z" fill="#6842b8" stroke="#6842b8"/><path d="m1557 686-46-91-92 46z" fill="#6f31b6" stroke="#6f31b6"/><path d="m1550 508-39 87 46 91z" fill="#672fb5" stroke="#672fb5"/><path d="m1456 152-65-114-20 132z" fill="#6936b9" stroke="#6936b9"/><path d="m1550 508-33-93-44 55z" fill="#663eb8" stroke="#663eb8"/><path d="m1459 243-3-91-85 18z" fill="#693fb9" stroke="#693fb9"/><path d="m63-127-50 72 72 15z" fill="#2217a6" stroke="#2217a6"/><path d="m-116 122 30-29-27-130z" fill="#2419a8" stroke="#2419a8"/><path d="m-48 47-38 46 63 56z" fill="#2a1fad" stroke="#2a1fad"/><path d="m1511 162-55-10 3 91z" fill="#683fb9" stroke="#683fb9"/><path d="m189-130-126 3 22 87z" fill="#2318a7" stroke="#2318a7"/><path d="m-47-135 110 8 126-3z" fill="#1e12a3" stroke="#1e12a3"/><path d="m1517 415-3-117-77 15z" fill="#6a4fb9" stroke="#6a4fb9"/><path d="m-113-37 27 130 38-46z" fill="#2318a8" stroke="#2318a8"/><path d="m-86 93-30 29 93 27z" fill="#2a22ac" stroke="#2a22ac"/><path d="m-113-37 65 84 61-102z" fill="#2115a5" stroke="#2115a5"/><path d="m-73 1024 56-2 3-123z" fill="#5c23ad" stroke="#5c23ad"/><path d="m1514 298-1-36-54-19z" fill="#6949ba" stroke="#6949ba"/><path d="m1517 415 33 93-36-210z" fill="#6746b8" stroke="#6746b8"/><path d="m1514 298 36 210-37-246z" fill="#694db9" stroke="#694db9"/><path d="m1511 595 39-87-77-38z" fill="#6435b6" stroke="#6435b6"/><path d="m1557 686-138-45 36 91z" fill="#7832b6" stroke="#7832b6"/><path d="m1473 923 4-77-78-5z" fill="#8c38b7" stroke="#8c38b7"/><path d="m1473 923-74-82-15 78z" fill="#8c38b7" stroke="#8c38b7"/><path d="m1397-55-63-40-55 55z" fill="#6024ae" stroke="#6024ae"/><path d="m1264-113 177 23-251-49z" fill="#5e20aa" stroke="#5e20aa"/><path d="m1397-55-118 15 112 78z" fill="#6328b1" stroke="#6328b1"/><path d="m1478 70-87-32 65 114z" fill="#6631b9" stroke="#6631b9"/><path d="m-92 845-13 72 91-18z" fill="#5e21ab" stroke="#5e21ab"/><path d="m-133 235 28 682 1-251z" fill="#2f17a6" stroke="#2f17a6"/><path d="m1283 1011 113 10-12-102z" fill="#8b38b7" stroke="#8b38b7"/><path d="m1205 1029 191-8-113-10z" fill="#8b38b7" stroke="#8b38b7"/><path d="m1513 262-2-100-52 81z" fill="#6844b9" stroke="#6844b9"/><path d="m1520 83-9 79 34-166z" fill="#6431b9" stroke="#6431b9"/><path d="m1477 846 52-69-74-45z" fill="#8837b7" stroke="#8837b7"/><path d="m1574 819-45-42-52 69z" fill="#8c38b7" stroke="#8c38b7"/><path d="m1440-52-43-3-6 93z" fill="#6128b1" stroke="#6128b1"/><path d="m1529 777 28-91-102 46z" fill="#7f34b7" stroke="#7f34b7"/><path d="m1520 83-42-13-22 82z" fill="#6634b9" stroke="#6634b9"/><path d="m1446 983 27-60-89-4z" fill="#8a38b7" stroke="#8a38b7"/><path d="m-105 917 32 107 59-125z" fill="#5c21ab" stroke="#5c21ab"/><path d="m-17 1022-56 2 121 9z" fill="#5c25ae" stroke="#5c25ae"/><path d="m1396 1021 50-38-62-64z" fill="#8a38b7" stroke="#8a38b7"/><path d="m1397-55 44-35-107-5z" fill="#5e23ac" stroke="#5e23ac"/><path d="m1478 70-38-122-49 90z" fill="#632cb4" stroke="#632cb4"/><path d="m1545-4-105-48 38 122z" fill="#612ab3" stroke="#612ab3"/><path d="m1511 162 9-79-64 69z" fill="#6638b9" stroke="#6638b9"/><path d="m1545-4-34 166 2 100z" fill="#6639ba" stroke="#6639ba"/><path d="m-47-135-66 98 126-18z" fill="#1b10a1" stroke="#1b10a1"/><path d="m-116 122 3-159-20 272z" fill="#271da9" stroke="#271da9"/><path d="m303-139-350 4 236 5z" fill="#2317a7" stroke="#2317a7"/><path d="m63-127-110-8 60 80z" fill="#1c11a1" stroke="#1c11a1"/><path d="m1557 931 17-112-97 27z" fill="#8a38b7" stroke="#8a38b7"/><path d="m1529 777 45 42-17-133z" fill="#8336b7" stroke="#8336b7"/><path d="m1557 686 17 133-24-311z" fill="#7332b6" stroke="#7332b6"/><path d="m1550 508-5-512-32 266z" fill="#6848ba" stroke="#6848ba"/><path d="m1557 931-80-85-4 77z" fill="#8a38b7" stroke="#8a38b7"/><path d="m1440-52 1-38-44 35z" fill="#5e24ad" stroke="#5e24ad"/><path d="m1334-95 107 5-177-23z" fill="#5e21ab" stroke="#5e21ab"/><path d="m1511-88-70-2-1 38z" fill="#5d23ad" stroke="#5d23ad"/><path d="m-47-135-45 11-21 87z" fill="#160b9d" stroke="#160b9d"/><path d="m1540 1028-67-105-27 60z" fill="#8838b7" stroke="#8838b7"/><path d="m1540 1028 17-97-84-8z" fill="#8838b7" stroke="#8838b7"/><path d="m1574 819-29-823 5 512z" fill="#6642b8" stroke="#6642b8"/><path d="m1520 83 25-87-67 74z" fill="#632eb6" stroke="#632eb6"/><path d="m1545-4-34-84-71 36z" fill="#5d26af" stroke="#5d26af"/><path d="m1441-90 70 2-321-51z" fill="#5d21aa" stroke="#5d21aa"/><path d="m1396 1021 144 7-94-45z" fill="#8838b7" stroke="#8838b7"/><path d="m1205 1029 335-1-144-7z" fill="#8938b7" stroke="#8938b7"/><path d="m712 1041 828-13-335 1z" fill="#8236b7" stroke="#8236b7"/></g></svg>